<svg id="Capa_1" enable-background="new 0 0 512 512" height="512" viewBox="0 0 512 512" width="512" xmlns="http://www.w3.org/2000/svg"><g><path d="m166 61c0-33.091-26.909-61-60-61s-60 27.909-60 61 26.909 60 60 60 60-26.909 60-60z"/><path d="m215.189 181-40.004 120h122.626l40.004-120z"/><path d="m0 196v105h143.555l6.877-20.625c-2.805-22.139-21.544-39.375-44.432-39.375h-45v-60h30v30h15c23.577 0 44.39 11.157 58.151 28.224l30.004-89.996c-13.761-17.071-34.577-28.228-58.155-28.228h-60c-41.353 0-76 33.647-76 75z"/><circle cx="407" cy="271" r="60"/><path d="m175.185 391 40.004 121h122.626l-40.004-121z"/><path d="m437 331h-60c-23.578 0-44.394 11.157-58.154 28.228l30.004 90.996c13.76-17.067 34.573-28.224 58.15-28.224h15v-31h30v61h-45c-22.888 0-41.627 17.236-44.432 39.375l6.877 20.625h142.555v-106c0-41.353-33.647-75-75-75z"/></g></svg>