<svg height="512" viewBox="0 0 128 128" width="512" xmlns="http://www.w3.org/2000/svg"><g id="Circle_Grid" data-name="Circle Grid"><circle cx="64" cy="64" fill="#f6c863" r="64"/></g><g id="icon"><path d="m97.613 34.93v69.1a1 1 0 0 1 -1.03.968h-54.2a1 1 0 0 1 -1.03-.968v-69.1a1 1 0 0 1 1.03-.968h54.2a1 1 0 0 1 1.03.968z" fill="#dbd8dd"/><path d="m91.267 28.584v69.1a1 1 0 0 1 -1.03.968h-54.2a1 1 0 0 1 -1.037-.966v-69.1a1 1 0 0 1 1.03-.968h54.2a1 1 0 0 1 1.037.966z" fill="#eeefee"/><g fill="#dbd8dd"><path d="m38.973 46.144h48.324v2.219h-48.324z"/><path d="m38.973 55.221h48.324v2.219h-48.324z"/><path d="m38.973 64.299h48.324v2.219h-48.324z"/><path d="m38.973 73.377h48.324v2.219h-48.324z"/><path d="m38.973 82.455h48.324v2.219h-48.324z"/><path d="m38.973 91.532h48.324v2.219h-48.324z"/></g><circle cx="37.797" cy="30.41" fill="#ef5261" r="7.41"/><path d="m36.469 25.533h2.656v9.754h-2.656z" fill="#eeefee"/><path d="m36.469 25.533h2.656v9.754h-2.656z" fill="#eeefee" transform="matrix(0 1 -1 0 68.207 -7.387)"/></g></svg>