<svg height="512" viewBox="0 0 128 128" width="512" xmlns="http://www.w3.org/2000/svg"><path d="m105.186 104.59v-9.26a30.1 30.1 0 0 0 -28.512-30.022 23.688 23.688 0 0 0 12.326-15.76 3.464 3.464 0 0 0 .934.13c2.45 0 4.369-2.529 4.369-5.757s-1.919-5.757-4.369-5.757a3.3 3.3 0 0 0 -.33.022v-5.108a23.608 23.608 0 1 0 -47.216 0v5.108a3.3 3.3 0 0 0 -.331-.022c-2.449 0-4.368 2.529-4.368 5.757s1.919 5.757 4.368 5.757a3.466 3.466 0 0 0 .935-.13 23.688 23.688 0 0 0 12.33 15.76 30.1 30.1 0 0 0 -28.509 30.022v9.26a9 9 0 0 0 1 17.941h76.373a9 9 0 0 0 1-17.941z" fill="#e6e7e8"/><path d="m100.186 101.531v-10.2a29.061 29.061 0 0 0 -29.062-29.062h-18.249a29.061 29.061 0 0 0 -29.061 29.062v10.2a8 8 0 0 1 0 16h76.371a8 8 0 0 1 0-16z" fill="#ffd7e5"/><path d="m62 62.87a22.541 22.541 0 0 1 -8.563-1.683v.138l8.563 5.456 8.571-5.456v-.142a22.523 22.523 0 0 1 -8.571 1.687z" fill="#fff"/><path d="m62 66.781-3.392 4.921h6.784z" fill="#fa759e"/><path d="m85.938 35.164a2.55 2.55 0 0 0 -1.33.388v4.709a22.676 22.676 0 0 1 -.321 3.783 2.645 2.645 0 0 0 1.651.633c1.861 0 3.369-2.129 3.369-4.756s-1.507-4.757-3.369-4.757z" fill="#fff"/><path d="m39.392 40.261v-4.709a2.55 2.55 0 0 0 -1.33-.388c-1.861 0-3.369 2.13-3.369 4.757s1.508 4.756 3.369 4.756a2.645 2.645 0 0 0 1.651-.633 22.676 22.676 0 0 1 -.321-3.783z" fill="#fff"/><rect fill="#fff" height="56.401" rx="22.608" width="45.217" x="39.392" y="6.469"/><path d="m84.154 24.549a22.613 22.613 0 0 0 -44.308 0 11.6 11.6 0 0 0 5.765-3.363 18.177 18.177 0 0 0 2.9-3.7 6.1 6.1 0 0 1 5.924-2.965 68.808 68.808 0 0 0 7.565.406 68.821 68.821 0 0 0 7.567-.407 6.1 6.1 0 0 1 5.924 2.965 18.177 18.177 0 0 0 2.9 3.7 11.6 11.6 0 0 0 5.763 3.364z" fill="#d4fbff"/><path d="m88.855 71.7h-53.71a4 4 0 0 0 -4 4v30.632a7.975 7.975 0 0 1 .513 4.767h61.2v-35.399a4 4 0 0 0 -4.003-4z" fill="#6dc9f7"/><path d="m35.5 111.1v-30.114a4 4 0 0 1 4-4h45a4 4 0 0 1 4 4v30.114z" fill="#d4fbff"/><path d="m42.5 76.986h-3a4 4 0 0 0 -4 4v30.114h3v-30.114a4 4 0 0 1 4-4z" fill="#fff"/><path d="m92.342 111.1h-60.684a8.012 8.012 0 0 1 -4.687 5.781 3.976 3.976 0 0 0 2.174.649h65.71a3.967 3.967 0 0 0 2.174-.649 8.012 8.012 0 0 1 -4.687-5.781z" fill="#0089ef"/><circle cx="23.814" cy="109.531" fill="#fff" r="8"/><circle cx="100.186" cy="109.531" fill="#fff" r="8"/><path d="m76.062 95.732v-2.951a.821.821 0 0 0 -.821-.821h-1.986a11.431 11.431 0 0 0 -1.674-4.036l1.406-1.406a.821.821 0 0 0 0-1.162l-2.087-2.086a.821.821 0 0 0 -1.162 0l-1.406 1.406a11.39 11.39 0 0 0 -4.032-1.676v-1.984a.822.822 0 0 0 -.822-.822h-2.95a.822.822 0 0 0 -.822.822v1.984a11.39 11.39 0 0 0 -4.035 1.674l-1.409-1.404a.823.823 0 0 0 -1.163 0l-2.086 2.086a.821.821 0 0 0 0 1.162l1.406 1.406a11.431 11.431 0 0 0 -1.674 4.036h-1.986a.822.822 0 0 0 -.822.821v2.951a.822.822 0 0 0 .822.822h1.986a11.426 11.426 0 0 0 1.674 4.035l-1.406 1.411a.821.821 0 0 0 0 1.162l2.087 2.087a.821.821 0 0 0 1.162 0l1.406-1.406a11.426 11.426 0 0 0 4.035 1.674v1.983a.822.822 0 0 0 .822.821h2.95a.822.822 0 0 0 .822-.821v-1.986a11.426 11.426 0 0 0 4.035-1.674l1.406 1.406a.821.821 0 0 0 1.162 0l2.087-2.087a.821.821 0 0 0 0-1.162l-1.406-1.406a11.426 11.426 0 0 0 1.674-4.035h1.986a.821.821 0 0 0 .821-.824zm-14.062 5.248a6.723 6.723 0 1 1 6.723-6.723 6.723 6.723 0 0 1 -6.723 6.723z" fill="#fa759e"/><g fill="#3a2c60"><path d="m52.026 34.836a2.261 2.261 0 1 0 2.261 2.264 2.261 2.261 0 0 0 -2.261-2.264z"/><path d="m71.974 34.836a2.261 2.261 0 1 0 2.261 2.264 2.261 2.261 0 0 0 -2.261-2.264z"/><path d="m62 48.16a3.575 3.575 0 0 0 3.571-3.571v-1.507a1 1 0 1 0 -2 0v1.507a1.571 1.571 0 0 1 -3.142 0v-1.507a1 1 0 1 0 -2 0v1.507a3.575 3.575 0 0 0 3.571 3.571z"/><path d="m70.254 32.718 4.427.772a1.017 1.017 0 0 0 .173.014 1 1 0 0 0 .171-1.985l-4.425-.771a1 1 0 1 0 -.344 1.97z"/><path d="m53.4 30.748-4.427.771a1 1 0 0 0 .171 1.985 1.017 1.017 0 0 0 .173-.014l4.427-.772a1 1 0 1 0 -.344-1.97z"/><path d="m62 54.068a7.572 7.572 0 0 0 5.806-2.71 1 1 0 0 0 -1.594-1.208 5.545 5.545 0 0 1 -4.212 1.918 5.366 5.366 0 0 1 -4.2-1.9 1 1 0 0 0 -1.618 1.174 7.368 7.368 0 0 0 5.818 2.726z"/><path d="m88.5 89.069a1 1 0 0 0 -1 1v5.875a1 1 0 1 0 2 0v-5.875a1 1 0 0 0 -1-1z"/><path d="m101.187 100.59v-9.259a30.1 30.1 0 0 0 -28.513-30.023 23.691 23.691 0 0 0 12.331-15.763 3.409 3.409 0 0 0 .933.132c2.45 0 4.369-2.528 4.369-5.756s-1.919-5.757-4.369-5.757a3.292 3.292 0 0 0 -.33.033v-5.12a23.608 23.608 0 0 0 -47.216 0v5.123c-.111-.011-.218-.033-.33-.033-2.451 0-4.37 2.529-4.37 5.757s1.919 5.756 4.37 5.756a3.409 3.409 0 0 0 .933-.132 23.691 23.691 0 0 0 12.331 15.76 30.1 30.1 0 0 0 -28.512 30.023v9.259a9 9 0 0 0 1 17.941h76.373a9 9 0 0 0 1-17.941zm-2 0a8.975 8.975 0 0 0 -5.332 2.554v-27.444a5.015 5.015 0 0 0 -.094-.931 27.91 27.91 0 0 1 5.426 16.56zm-8.776-29.615a4.933 4.933 0 0 0 -1.556-.273h-17.477l4.122-7.091a28 28 0 0 1 14.911 7.364zm-19.286-7.706c.685 0 1.391.032 2.1.087l.1.007-4.26 7.337h-3.147l-2.505-3.635 5.967-3.8zm-9.125 2.331-3.022-1.93a22.9 22.9 0 0 0 6.048 0zm0 2.946 1.488 2.16h-2.977zm-1.412-1.475-2.505 3.629h-3.148l-4.264-7.339.1-.007c.714-.055 1.419-.087 2.1-.087h1.751zm-12.088-3.46 4.12 7.091h-17.475a4.917 4.917 0 0 0 -1.555.273 27.991 27.991 0 0 1 14.91-7.364zm-13.355 9.089h53.71a3 3 0 0 1 3 3v30.439a8.939 8.939 0 0 0 -.668 3.39c0 .193.016.381.028.57h-1.715v-10.905a1 1 0 0 0 -2 0v10.906h-51v-29.114a3 3 0 0 1 3-3h45a3 3 0 0 1 3 3v5.458a1 1 0 1 0 2 0v-5.458a5.006 5.006 0 0 0 -5-5h-45a5.006 5.006 0 0 0 -5 5v29.114h-1.715c.012-.189.029-.377.029-.57a8.95 8.95 0 0 0 -.669-3.392v-30.438a3 3 0 0 1 3-3zm-2.71 39.4h59.13a9.024 9.024 0 0 0 2.977 4.43h-65.084a9.024 9.024 0 0 0 2.977-4.43zm53.5-75.937c1.284 0 2.369 1.72 2.369 3.757s-1.085 3.756-2.369 3.756a1.456 1.456 0 0 1 -.563-.13 23.744 23.744 0 0 0 .233-3.286v-4.054a1.47 1.47 0 0 1 .333-.042zm-47.873 7.514c-1.285 0-2.37-1.72-2.37-3.756s1.085-3.757 2.37-3.757a1.47 1.47 0 0 1 .33.042v4.055a23.744 23.744 0 0 0 .233 3.286 1.456 1.456 0 0 1 -.563.13zm2.33-3.416v-11.184a21.608 21.608 0 0 1 43.216 0v11.184a21.637 21.637 0 0 1 -18.608 21.395v-3.685a1.711 1.711 0 0 0 -1.71-1.711h-2.584a1.711 1.711 0 0 0 -1.706 1.711v3.685a21.637 21.637 0 0 1 -18.608-21.395zm-10.153 34.511a4.921 4.921 0 0 0 -.094.93v27.441a8.982 8.982 0 0 0 -5.331-2.553v-9.259a27.906 27.906 0 0 1 5.425-16.559zm-13.425 34.759a7 7 0 1 1 7 7 7.008 7.008 0 0 1 -7-7zm83.373 7a7 7 0 1 1 7-7 7.008 7.008 0 0 1 -7 7z"/><path d="m75.241 90.96h-1.2a12.279 12.279 0 0 0 -1.2-2.887l.847-.848a1.824 1.824 0 0 0 0-2.576l-2.087-2.086a1.823 1.823 0 0 0 -2.576 0l-.847.847a12.324 12.324 0 0 0 -2.887-1.2v-1.2a1.824 1.824 0 0 0 -1.822-1.822h-2.945a1.823 1.823 0 0 0 -1.824 1.828v1.2a12.324 12.324 0 0 0 -2.887 1.2l-.848-.848a1.823 1.823 0 0 0 -2.575 0l-2.087 2.086a1.82 1.82 0 0 0 0 2.576l.847.848a12.307 12.307 0 0 0 -1.2 2.887h-1.2a1.823 1.823 0 0 0 -1.821 1.821v2.951a1.824 1.824 0 0 0 1.821 1.822h1.2a12.324 12.324 0 0 0 1.2 2.887l-.846.847a1.819 1.819 0 0 0 0 2.576l2.087 2.087a1.824 1.824 0 0 0 2.576 0l.847-.848a12.324 12.324 0 0 0 2.887 1.2v1.2a1.823 1.823 0 0 0 1.821 1.821h2.951a1.823 1.823 0 0 0 1.827-1.829v-1.2a12.324 12.324 0 0 0 2.887-1.2l.847.848a1.824 1.824 0 0 0 2.576 0l2.087-2.087a1.824 1.824 0 0 0 0-2.576l-.847-.847a12.324 12.324 0 0 0 1.2-2.887h1.2a1.825 1.825 0 0 0 1.822-1.822v-2.948a1.824 1.824 0 0 0 -1.831-1.821zm-.178 4.594h-1.808a1 1 0 0 0 -.98.8 10.383 10.383 0 0 1 -1.527 3.682 1 1 0 0 0 .126 1.259l1.28 1.28-1.835 1.835-1.279-1.28a1 1 0 0 0 -1.26-.13 10.385 10.385 0 0 1 -3.682 1.528 1 1 0 0 0 -.8.98v1.807h-2.598v-1.807a1 1 0 0 0 -.8-.98 10.385 10.385 0 0 1 -3.68-1.528 1 1 0 0 0 -1.26.126l-1.279 1.281-1.835-1.835 1.28-1.28a1 1 0 0 0 .126-1.259 10.383 10.383 0 0 1 -1.527-3.682 1 1 0 0 0 -.98-.8h-1.807v-2.591h1.807a1 1 0 0 0 .98-.8 10.377 10.377 0 0 1 1.528-3.681 1 1 0 0 0 -.127-1.26l-1.28-1.28 1.835-1.839 1.279 1.28a1 1 0 0 0 1.26.127 10.367 10.367 0 0 1 3.68-1.525 1 1 0 0 0 .8-.98v-1.808h2.6v1.806a1 1 0 0 0 .8.98 10.367 10.367 0 0 1 3.68 1.53 1 1 0 0 0 1.26-.127l1.279-1.28 1.835 1.834-1.28 1.28a1 1 0 0 0 -.127 1.259 10.4 10.4 0 0 1 1.528 3.682 1 1 0 0 0 .98.8h1.808z"/><path d="m62 86.534a7.723 7.723 0 1 0 7.723 7.723 7.731 7.731 0 0 0 -7.723-7.723zm0 13.446a5.723 5.723 0 1 1 5.723-5.723 5.73 5.73 0 0 1 -5.723 5.723z"/></g></svg>